<?xml version="1.0" standalone="no"?>
<!DOCTYPE svg PUBLIC "-//W3C//DTD SVG 20010904//EN"
 "http://www.w3.org/TR/2001/REC-SVG-20010904/DTD/svg10.dtd">
<svg version="1.0" xmlns="http://www.w3.org/2000/svg"
 width="500.000000pt" height="500.000000pt" viewBox="0 0 500.000000 500.000000"
 preserveAspectRatio="xMidYMid meet">
<metadata>
Created by potrace 1.14, written by Peter Selinger 2001-2017
</metadata>
<g transform="translate(0.000000,500.000000) scale(0.100000,-0.100000)"
fill="#000000" stroke="none">
<path d="M2070 3940 c-17 -11 -22 -150 -8 -235 5 -27 10 -59 12 -70 13 -86 81
-259 132 -340 68 -106 271 -294 367 -338 20 -10 37 -21 37 -26 0 -12 138 -87
225 -121 44 -17 95 -38 113 -46 18 -8 37 -14 42 -14 5 0 34 -11 64 -25 30 -14
58 -25 61 -25 20 0 259 -127 306 -162 129 -98 271 -256 294 -328 4 -11 10 -20
13 -20 6 0 6 928 1 1000 -1 8 -10 51 -20 95 -39 162 -120 300 -231 396 -128
111 -243 157 -402 163 -16 0 -39 9 -51 20 -12 11 -58 34 -103 52 l-81 33 -378
0 c-219 0 -384 -3 -393 -9z"/>
<path d="M1771 3838 c-24 -4 -72 -20 -105 -36 -60 -28 -158 -95 -164 -113 -2
-5 -8 -9 -14 -9 -22 0 -115 -109 -158 -185 -85 -150 -109 -330 -64 -478 66
-220 272 -438 549 -580 84 -43 126 -62 360 -162 215 -92 274 -120 340 -159 50
-30 158 -109 183 -133 7 -7 21 -18 30 -25 22 -16 102 -112 102 -122 0 -4 11
-22 24 -39 65 -85 133 -268 160 -433 9 -54 22 -127 28 -161 7 -44 15 -64 27
-68 32 -10 168 23 238 58 161 82 285 210 338 352 78 206 39 437 -106 631 -136
184 -355 331 -626 423 -68 23 -125 48 -249 106 -201 97 -317 177 -444 305 -79
80 -93 97 -147 180 -24 36 -47 70 -53 77 -12 15 -76 204 -89 263 -18 82 -21
104 -27 200 -3 52 -7 101 -9 107 -5 14 -52 14 -124 1z"/>
<path d="M1237 2693 c-5 -9 0 -889 6 -918 2 -11 7 -36 12 -55 5 -19 9 -37 10
-40 60 -249 269 -462 530 -539 39 -11 82 -23 97 -25 15 -3 31 -7 35 -9 22 -14
187 -20 557 -21 l408 -1 -6 50 c-17 139 -74 382 -107 459 -39 89 -72 136 -147
212 -103 103 -221 171 -532 309 -47 20 -103 45 -125 55 -22 10 -56 24 -75 31
-56 23 -201 99 -257 135 -28 19 -56 34 -61 34 -6 0 -12 4 -14 8 -1 5 -25 23
-53 42 -57 38 -205 186 -243 243 -26 39 -28 41 -35 30z"/>
</g>
</svg>
